<?xml version="1.0" standalone="no"?>
<!DOCTYPE svg PUBLIC "-//W3C//DTD SVG 20010904//EN"
 "http://www.w3.org/TR/2001/REC-SVG-20010904/DTD/svg10.dtd">
<svg version="1.0" xmlns="http://www.w3.org/2000/svg"
 width="700.000000pt" height="700.000000pt" viewBox="0 0 700.000000 700.000000"
 preserveAspectRatio="xMidYMid meet">
<metadata>
Created by potrace 1.11, written by Peter Selinger 2001-2013
</metadata>
<g transform="translate(0.000000,700.000000) scale(0.100000,-0.100000)"
fill="#000000" stroke="none">
<path d="M3245 5919 c-38 -5 -110 -16 -160 -25 -49 -9 -103 -18 -120 -21 -16
-3 -82 -21 -145 -40 -415 -125 -727 -311 -1031 -613 -278 -276 -467 -578 -591
-940 -24 -72 -63 -209 -73 -260 -15 -74 -36 -196 -42 -245 -15 -119 -7 -593
11 -624 2 -3 7 -28 10 -56 9 -67 23 -130 58 -255 77 -273 205 -538 367 -760
280 -384 645 -668 1078 -838 116 -46 297 -103 370 -116 51 -9 197 -35 238 -41
22 -4 139 -8 260 -10 239 -3 376 11 580 61 55 14 107 26 116 28 50 12 234 78
294 106 601 272 1047 728 1289 1320 74 182 145 463 163 646 10 103 10 441 0
524 -37 312 -112 562 -249 835 -287 574 -804 1018 -1413 1215 -149 48 -221 64
-466 106 -56 9 -468 11 -544 3z m422 -483 c212 -16 431 -73 643 -168 249 -112
525 -328 705 -553 475 -592 562 -1403 225 -2077 -162 -323 -419 -607 -713
-787 -155 -94 -386 -196 -514 -226 -10 -2 -36 -9 -58 -15 -558 -141 -1187 -4
-1650 359 -117 92 -229 205 -350 352 -49 61 -141 209 -190 307 -314 627 -271
1361 113 1942 31 47 61 90 67 96 5 7 21 26 35 44 277 358 746 636 1190 706 19
3 42 7 50 9 8 2 58 7 110 11 52 3 96 7 97 8 4 4 147 -1 240 -8z"/>
<path d="M3262 4705 c-6 -8 -8 -365 -3 -457 1 -17 19 -18 241 -18 132 0 240 3
241 8 4 36 3 424 -1 447 l-6 30 -233 0 c-145 0 -235 -4 -239 -10z"/>
<path d="M3258 3725 c-2 -11 -3 -339 -2 -730 l0 -710 244 1 243 0 1 723 c1
398 -1 726 -4 729 -3 4 -112 7 -242 7 -229 0 -237 -1 -240 -20z"/>
</g>
</svg>
